<svg width="86" height="86" viewBox="0 0 86 86" fill="none" xmlns="http://www.w3.org/2000/svg">
<path d="M42.9999 0.333374C31.4123 0.333374 29.9593 0.38249 25.4085 0.590131C20.8671 0.797434 17.7656 1.51859 15.0515 2.5734C12.2458 3.66377 9.86638 5.12268 7.49442 7.49464C5.12246 9.86659 3.66355 12.246 2.57318 15.0517C1.51838 17.7656 0.797219 20.8672 0.589916 25.4085C0.382275 29.9594 0.333328 31.4124 0.333328 43C0.333328 54.5874 0.382275 56.0404 0.589916 60.5912C0.797219 65.1326 1.51838 68.2342 2.57318 70.9481C3.66355 73.7538 5.12246 76.1332 7.49442 78.5053C9.86638 80.8773 12.2458 82.3362 15.0515 83.4266C17.7656 84.4812 20.8671 85.2025 25.4085 85.4097C29.9593 85.6173 31.4123 85.6664 42.9999 85.6664C54.5874 85.6664 56.0404 85.6173 60.5912 85.4097C65.1326 85.2025 68.2341 84.4812 70.948 83.4266C73.7537 82.3362 76.1331 80.8773 78.5053 78.5053C80.8772 76.1332 82.3361 73.7538 83.4265 70.9481C84.4812 68.2342 85.2025 65.1326 85.4096 60.5912C85.6173 56.0404 85.6664 54.5874 85.6664 43C85.6664 31.4124 85.6173 29.9594 85.4096 25.4085C85.2025 20.8672 84.4812 17.7656 83.4265 15.0517C82.3361 12.246 80.8772 9.86659 78.5053 7.49464C76.1331 5.12268 73.7537 3.66377 70.948 2.5734C68.2341 1.51859 65.1326 0.797434 60.5912 0.590131C56.0404 0.38249 54.5874 0.333374 42.9999 0.333374ZM42.9999 8.02119C54.3923 8.02119 55.7418 8.06455 60.2408 8.26982C64.4007 8.45968 66.6599 9.15475 68.1633 9.73889C70.1549 10.5129 71.5762 11.4376 73.0692 12.9306C74.5623 14.4235 75.4869 15.845 76.2609 17.8364C76.8452 19.3399 77.5402 21.599 77.7299 25.759C77.9352 30.258 77.9787 31.6075 77.9787 43C77.9787 54.3923 77.9352 55.7418 77.7299 60.2408C77.5402 64.4008 76.8452 66.6599 76.2609 68.1634C75.4869 70.155 74.5623 71.5763 73.0692 73.0692C71.5762 74.5623 70.1549 75.4869 68.1633 76.2609C66.6599 76.8452 64.4007 77.5403 60.2408 77.73C55.7424 77.9352 54.3931 77.9788 42.9999 77.9788C31.6066 77.9788 30.2574 77.9352 25.7589 77.73C21.599 77.5403 19.3398 76.8452 17.8364 76.2609C15.8448 75.4869 14.4235 74.5623 12.9304 73.0692C11.4374 71.5763 10.5127 70.155 9.73885 68.1634C9.15454 66.6599 8.45946 64.4008 8.2696 60.2408C8.06433 55.7418 8.02098 54.3923 8.02098 43C8.02098 31.6075 8.06433 30.258 8.2696 25.759C8.45946 21.599 9.15454 19.3399 9.73885 17.8364C10.5127 15.845 11.4374 14.4235 12.9304 12.9306C14.4235 11.4376 15.8448 10.5129 17.8364 9.73889C19.3398 9.15475 21.599 8.45968 25.7589 8.26982C30.2579 8.06455 31.6074 8.02119 42.9999 8.02119Z" fill="inherit"/>
<path d="M42.9999 57.2221C35.1451 57.2221 28.7777 50.8546 28.7777 43C28.7777 35.1452 35.1451 28.7777 42.9999 28.7777C50.8546 28.7777 57.222 35.1452 57.222 43C57.222 50.8546 50.8546 57.2221 42.9999 57.2221ZM42.9999 21.0901C30.8993 21.0901 21.09 30.8994 21.09 43C21.09 55.1004 30.8993 64.9097 42.9999 64.9097C55.1004 64.9097 64.9097 55.1004 64.9097 43C64.9097 30.8994 55.1004 21.0901 42.9999 21.0901Z" fill="inherit"/>
<path d="M70.8954 20.2244C70.8954 23.0521 68.603 25.3443 65.7753 25.3443C62.9477 25.3443 60.6554 23.0521 60.6554 20.2244C60.6554 17.3967 62.9477 15.1045 65.7753 15.1045C68.603 15.1045 70.8954 17.3967 70.8954 20.2244Z" fill="inherit"/>
</svg>
