<svg width="85" height="85" viewBox="0 0 85 85" xmlns="http://www.w3.org/2000/svg">
<rect width="85" height="85" fill="transparent"/>
<path d="M79.2612 6.4893L3.9681 36.6333C-1.17078 38.7734 -1.1403 41.7486 3.03142 43.0752L21.8098 49.159L28.9948 72.0246C29.8683 74.5272 29.4377 75.5198 31.9695 75.5198C33.9234 75.5198 34.7902 74.5952 35.8784 73.4917C36.5704 72.7888 40.6792 68.6423 45.267 64.0123L64.8 78.9924C68.3944 81.0507 70.9897 79.9844 71.8847 75.5274L84.7066 12.8102C86.0193 7.34722 82.7001 4.86924 79.2612 6.4893ZM24.7568 47.7612L67.0833 20.0427C69.1963 18.7126 71.1337 19.4277 69.543 20.8933L33.3004 54.8355L31.8893 70.4585L24.7568 47.7612V47.7612Z" fill="inherit"/>
</svg>
